<svg width="140" height="140" viewBox="0 0 140 140" fill="none" xmlns="http://www.w3.org/2000/svg">
<path d="M17.0898 54.4227L24.6491 48.5367L18.5277 40.9105L29.8522 35.7248L23.4248 23.828L31.0765 25.6583L33.5251 15.2867H41.7889V6.78539C41.7889 5.41725 40.446 4.453 39.1497 4.89031L9.54284 14.8776C5.37101 16.2849 3.12042 20.7986 4.507 24.9774L13.9628 53.4745C14.3979 54.7857 15.9997 55.2714 17.0898 54.4227Z"/>
<path d="M110 137H33.8734M110 137C114.418 137 118 133.418 118 129M110 137V137C114.418 137 118 133.418 118 129V129M33.8734 137C29.4551 137 25.8734 133.418 25.8734 129M33.8734 137V137C29.4551 137 25.8734 133.418 25.8734 129V129M25.8734 129V60.6191M25.8734 60.6191C25.8734 59.7757 26.4025 59.0229 27.1961 58.7373M25.8734 60.6191V60.6191C25.8734 59.7757 26.4025 59.0229 27.1961 58.7373V58.7373M27.1961 58.7373L36.8918 55.2477L33.5251 46.0963L45.7678 44.5711L43.9314 31.1491L50.6649 34.8096L56.1741 25.6583L64.438 28.7087L66.8865 18.9472H81.6387M81.6387 18.9472C83.7558 18.9472 85.7866 19.7864 87.2861 21.2809M81.6387 18.9472V18.9472C83.7558 18.9472 85.7866 19.7864 87.2861 21.2809V21.2809M87.2861 21.2809L115.647 49.5474M115.647 49.5474C117.153 51.0485 118 53.0874 118 55.2138M115.647 49.5474V49.5474C117.153 51.0485 118 53.0874 118 55.2138V55.2138M118 55.2138V129M17.0898 54.4227L24.6491 48.5367L18.5277 40.9105L29.8522 35.7248L23.4248 23.828L31.0765 25.6583L33.5251 15.2867H41.7889V6.78539M17.0898 54.4227C15.9997 55.2714 14.3979 54.7857 13.9628 53.4745M17.0898 54.4227V54.4227C15.9997 55.2714 14.3979 54.7857 13.9628 53.4745V53.4745M41.7889 6.78539C41.7889 5.41725 40.446 4.453 39.1497 4.89031M41.7889 6.78539V6.78539C41.7889 5.41725 40.446 4.453 39.1497 4.89031V4.89031M39.1497 4.89031L9.54284 14.8776M9.54284 14.8776C5.37101 16.2849 3.12042 20.7986 4.507 24.9774M9.54284 14.8776V14.8776C5.37101 16.2849 3.12042 20.7986 4.507 24.9774V24.9774M4.507 24.9774L13.9628 53.4745" stroke="#727A87" style="stroke:#727A87;stroke:color(display-p3 0.4471 0.4784 0.5294);stroke-opacity:1;" stroke-width="2"/>
<path d="M116.777 51.0001L93.1301 51.0002C88.6614 51.0003 85.059 47.3394 85.1311 42.8712L85.5 20.0002L116.777 51.0001Z" fill="#737A87" fill-opacity="0.12" stroke="#727A87" style="fill:#737A87;fill:color(display-p3 0.4510 0.4784 0.5294);fill-opacity:0.12;stroke:#727A87;stroke:color(display-p3 0.4471 0.4784 0.5294);stroke-opacity:1;" stroke-width="2" stroke-linejoin="round"/>
<path d="M81.4252 97.1735V95.3149L89.6246 82.3416H90.973V85.2205H90.0619L83.8668 95.0234V95.1691H94.9087V97.1735H81.4252ZM90.2077 101V96.6086V95.7431V82.3416H92.3578V101H90.2077Z" fill="#727A87" style="fill:#727A87;fill:color(display-p3 0.4471 0.4784 0.5294);fill-opacity:1;"/>
<path d="M71.9138 101.255C70.5412 101.255 69.372 100.881 68.4063 100.134C67.4405 99.3812 66.7026 98.291 66.1924 96.8637C65.6822 95.4303 65.4271 93.6993 65.4271 91.6707C65.4271 89.6542 65.6822 87.9323 66.1924 86.505C66.7087 85.0716 67.4497 83.9784 68.4154 83.2252C69.3872 82.466 70.5533 82.0864 71.9138 82.0864C73.2743 82.0864 74.4374 82.466 75.4031 83.2252C76.3749 83.9784 77.1159 85.0716 77.6261 86.505C78.1423 87.9323 78.4005 89.6542 78.4005 91.6707C78.4005 93.6993 78.1454 95.4303 77.6352 96.8637C77.125 98.291 76.3871 99.3812 75.4213 100.134C74.4556 100.881 73.2865 101.255 71.9138 101.255ZM71.9138 99.2506C73.2743 99.2506 74.3311 98.5947 75.0843 97.2827C75.8374 95.9708 76.214 94.1001 76.214 91.6707C76.214 90.0551 76.0409 88.6794 75.6947 87.5436C75.3545 86.4078 74.8626 85.5423 74.2188 84.9471C73.581 84.3519 72.8127 84.0543 71.9138 84.0543C70.5654 84.0543 69.5117 84.7194 68.7525 86.0495C67.9932 87.3736 67.6136 89.2473 67.6136 91.6707C67.6136 93.2863 67.7837 94.6589 68.1238 95.7886C68.464 96.9183 68.9529 97.7777 69.5906 98.3669C70.2344 98.956 71.0088 99.2506 71.9138 99.2506Z" fill="#727A87" style="fill:#727A87;fill:color(display-p3 0.4471 0.4784 0.5294);fill-opacity:1;"/>
<path d="M48.9303 97.1735V95.3149L57.1297 82.3416H58.4781V85.2205H57.567L51.3719 95.0234V95.1691H62.4138V97.1735H48.9303ZM57.7128 101V96.6086V95.7431V82.3416H59.8629V101H57.7128Z" fill="#727A87" style="fill:#727A87;fill:color(display-p3 0.4471 0.4784 0.5294);fill-opacity:1;"/>
</svg>
